<svg width="668" height="688" viewBox="0 0 668 688" fill="none" xmlns="http://www.w3.org/2000/svg">
  <path fill-rule="evenodd" clip-rule="evenodd" d="M19.3742 474.524C-7.04524 526.46 -5.84322 588.477 19.3102 688L70.9286 688C43.8393 578.88 44.1898 536.017 63.9406 497.192L63.9419 497.189C81.4482 462.766 117.038 437.648 158.094 421.817L158.101 421.814C186.926 410.689 216.036 404.17 247.129 397.207L247.13 397.207C261.639 393.957 276.579 390.611 292.125 386.656L292.133 386.654C338.977 374.716 389.958 356.73 429.386 320.437C448.273 303.056 467.615 277.713 470.496 246.058C474.818 198.673 441.207 160.675 411.009 139.282C398.209 130.214 384.448 122.407 371.987 115.338L371.986 115.337L371.985 115.337L371.978 115.333C369.702 114.042 367.469 112.775 365.294 111.53C350.629 103.136 337.849 95.3463 326.829 85.9456C301.679 64.4856 285.272 32.851 281.75 -1.23157e-05L231.545 -1.01212e-05C235.174 47.4375 258.103 93.0316 294.374 123.981L294.376 123.982C309.228 136.653 325.55 146.393 340.456 154.925C342.955 156.355 345.404 157.746 347.807 159.111C360.292 166.205 371.532 172.591 382.106 180.082C407.409 198.007 422.562 221.153 420.703 241.52L420.702 241.526C419.439 255.408 410.286 270.064 395.528 283.646L395.526 283.648C365.466 311.317 324.455 326.819 279.794 338.2C267.276 341.385 254.02 344.362 240.38 347.424C207.548 354.796 172.485 362.669 140.105 375.165C93.0512 393.309 44.6761 424.772 19.3742 474.524ZM441.126 -1.92822e-05C444.451 29.1032 467.094 56.7499 497.885 79.4937L497.892 79.4983C509.051 87.746 520.352 95.0519 532.364 102.817L532.364 102.818C538.024 106.476 543.841 110.237 549.875 114.246C567.979 126.275 586.887 139.852 603.567 157L603.57 157.003C652.975 207.784 672.887 280.883 666.845 348.774C660.494 420.139 615.081 463.522 577.393 499.525L577.383 499.534C572.411 504.284 567.574 508.905 562.978 513.446C542.247 533.927 525.304 553.179 514.913 576.195C506.653 594.491 496.415 628.761 512.903 688L461.316 688C445.817 624.643 457.617 581.593 469.341 555.622C483.703 523.809 506.241 499.214 527.837 477.877C533.05 472.727 538.178 467.764 543.177 462.925L543.19 462.912L543.202 462.901L543.213 462.89C581.578 425.758 612.456 395.871 617.042 344.342C622.042 288.157 605.17 230.348 567.73 191.868L567.728 191.865C554.828 178.603 539.485 167.373 522.206 155.892C517.299 152.633 512.107 149.274 506.768 145.821L506.764 145.818C494.106 137.63 480.624 128.91 468.179 119.712L468.173 119.708C432.828 93.5997 394.331 52.8976 390.941 -1.70886e-05L441.126 -1.92822e-05Z" fill="#D9DCD5"/>
</svg>
